<svg xmlns="http://www.w3.org/2000/svg" width="860" height="380" viewBox="0 0 860 380" font-family="ui-monospace,SFMono-Regular,Menlo,Consolas,monospace"><defs><filter id="g" x="-30%" y="-30%" width="160%" height="160%"><feGaussianBlur stdDeviation="3" result="b"/><feMerge><feMergeNode in="b"/><feMergeNode in="SourceGraphic"/></feMerge></filter><linearGradient id="ar" x1="0" y1="0" x2="0" y2="1"><stop offset="0" stop-color="#ff4fd8" stop-opacity=".45"/><stop offset="1" stop-color="#ff4fd8" stop-opacity="0"/></linearGradient><linearGradient id="ln" x1="0" x2="1"><stop offset="0" stop-color="#22d3ee"/><stop offset="1" stop-color="#ff4fd8"/></linearGradient></defs><rect width="860" height="380" rx="14" fill="#0a0e14"/><rect x=".5" y=".5" width="859" height="379" rx="14" fill="none" stroke="#1f2b3a"/><text x="30" y="36" font-size="15" fill="#e6edf3">skill radar</text><text x="470" y="36" font-size="15" fill="#e6edf3">learning curve</text><polygon points="230.0,175.0 256.0,190.0 256.0,220.0 230.0,235.0 204.0,220.0 204.0,190.0" fill="none" stroke="#243244" stroke-dasharray="4 5"><animate attributeName="stroke-dashoffset" values="0;-18" dur="3s" repeatCount="indefinite"/></polygon><polygon points="230.0,145.0 282.0,175.0 282.0,235.0 230.0,265.0 178.0,235.0 178.0,175.0" fill="none" stroke="#243244" stroke-dasharray="4 5"><animate attributeName="stroke-dashoffset" values="0;-18" dur="3s" repeatCount="indefinite"/></polygon><polygon points="230.0,115.0 307.9,160.0 307.9,250.0 230.0,295.0 152.1,250.0 152.1,160.0" fill="none" stroke="#243244" stroke-dasharray="4 5"><animate attributeName="stroke-dashoffset" values="0;-18" dur="3s" repeatCount="indefinite"/></polygon><polygon points="230.0,85.0 333.9,145.0 333.9,265.0 230.0,325.0 126.1,265.0 126.1,145.0" fill="none" stroke="#243244" stroke-dasharray="4 5"><animate attributeName="stroke-dashoffset" values="0;-18" dur="3s" repeatCount="indefinite"/></polygon><line x1="230" y1="205" x2="230.0" y2="85.0" stroke="#243244"/><text x="230.0" y="62.6" text-anchor="middle" font-size="13" fill="#7d8590">C</text><line x1="230" y1="205" x2="333.9" y2="145.0" stroke="#243244"/><text x="356.8" y="135.8" text-anchor="middle" font-size="13" fill="#7d8590">C++</text><line x1="230" y1="205" x2="333.9" y2="265.0" stroke="#243244"/><text x="356.8" y="282.2" text-anchor="middle" font-size="13" fill="#7d8590">Python</text><line x1="230" y1="205" x2="230.0" y2="325.0" stroke="#243244"/><text x="230.0" y="355.4" text-anchor="middle" font-size="13" fill="#7d8590">Java</text><line x1="230" y1="205" x2="126.1" y2="265.0" stroke="#243244"/><text x="103.2" y="282.2" text-anchor="middle" font-size="13" fill="#7d8590">Web</text><line x1="230" y1="205" x2="126.1" y2="145.0" stroke="#243244"/><text x="103.2" y="135.8" text-anchor="middle" font-size="13" fill="#7d8590">Linux</text><polygon points="230.0,205.0 230.0,205.0 230.0,205.0 230.0,205.0 230.0,205.0 230.0,205.0" fill="#22d3ee" fill-opacity=".22" stroke="#22d3ee" stroke-width="2" filter="url(#g)"><animate attributeName="points" values="230.0,205.0 230.0,205.0 230.0,205.0 230.0,205.0 230.0,205.0 230.0,205.0;230.0,121.0 292.4,169.0 297.5,244.0 230.0,259.0 152.1,250.0 188.4,181.0" dur="1.6s" begin=".3s" calcMode="spline" keySplines=".2 .8 .2 1" fill="freeze" id="rad"/><animate attributeName="points" values="230.0,121.0 292.4,169.0 297.5,244.0 230.0,259.0 152.1,250.0 188.4,181.0;230.0,126.9 288.0,171.5 292.8,241.3 230.0,255.2 157.5,246.9 191.3,182.7;230.0,121.0 292.4,169.0 297.5,244.0 230.0,259.0 152.1,250.0 188.4,181.0" dur="4s" begin="rad.end" repeatCount="indefinite"/></polygon><circle cx="230.0" cy="121.0" r="0" fill="#ff4fd8"><animate attributeName="r" values="0;5" dur=".4s" begin="1.9s" fill="freeze"/></circle><text x="230.0" y="111.0" text-anchor="middle" font-size="11" fill="#e6edf3" opacity="0"><animate attributeName="opacity" values="0;1" dur=".4s" begin="2s" fill="freeze"/>70</text><circle cx="292.4" cy="169.0" r="0" fill="#ff4fd8"><animate attributeName="r" values="0;5" dur=".4s" begin="1.9s" fill="freeze"/></circle><text x="292.4" y="159.0" text-anchor="middle" font-size="11" fill="#e6edf3" opacity="0"><animate attributeName="opacity" values="0;1" dur=".4s" begin="2s" fill="freeze"/>60</text><circle cx="297.5" cy="244.0" r="0" fill="#ff4fd8"><animate attributeName="r" values="0;5" dur=".4s" begin="1.9s" fill="freeze"/></circle><text x="297.5" y="234.0" text-anchor="middle" font-size="11" fill="#e6edf3" opacity="0"><animate attributeName="opacity" values="0;1" dur=".4s" begin="2s" fill="freeze"/>65</text><circle cx="230.0" cy="259.0" r="0" fill="#ff4fd8"><animate attributeName="r" values="0;5" dur=".4s" begin="1.9s" fill="freeze"/></circle><text x="230.0" y="249.0" text-anchor="middle" font-size="11" fill="#e6edf3" opacity="0"><animate attributeName="opacity" values="0;1" dur=".4s" begin="2s" fill="freeze"/>45</text><circle cx="152.1" cy="250.0" r="0" fill="#ff4fd8"><animate attributeName="r" values="0;5" dur=".4s" begin="1.9s" fill="freeze"/></circle><text x="152.1" y="240.0" text-anchor="middle" font-size="11" fill="#e6edf3" opacity="0"><animate attributeName="opacity" values="0;1" dur=".4s" begin="2s" fill="freeze"/>75</text><circle cx="188.4" cy="181.0" r="0" fill="#ff4fd8"><animate attributeName="r" values="0;5" dur=".4s" begin="1.9s" fill="freeze"/></circle><text x="188.4" y="171.0" text-anchor="middle" font-size="11" fill="#e6edf3" opacity="0"><animate attributeName="opacity" values="0;1" dur=".4s" begin="2s" fill="freeze"/>40</text><line x1="490" x2="830" y1="70.0" y2="70.0" stroke="#182230"/><line x1="490" x2="830" y1="132.5" y2="132.5" stroke="#182230"/><line x1="490" x2="830" y1="195.0" y2="195.0" stroke="#182230"/><line x1="490" x2="830" y1="257.5" y2="257.5" stroke="#182230"/><line x1="490" x2="830" y1="320.0" y2="320.0" stroke="#182230"/><path d="M490.0,310.0 C505.5,310.0 505.5,297.5 520.9,297.5 C536.4,297.5 536.4,285.0 551.8,285.0 C567.3,285.0 567.3,265.0 582.7,265.0 C598.2,265.0 598.2,252.5 613.6,252.5 C629.1,252.5 629.1,225.0 644.5,225.0 C660.0,225.0 660.0,207.5 675.5,207.5 C690.9,207.5 690.9,175.0 706.4,175.0 C721.8,175.0 721.8,155.0 737.3,155.0 C752.7,155.0 752.7,122.5 768.2,122.5 C783.6,122.5 783.6,100.0 799.1,100.0 C814.5,100.0 814.5,70.0 830.0,70.0 L830,320 L490,320 Z" fill="url(#ar)" opacity="0"><animate attributeName="opacity" values="0;1" dur="1s" begin="1.6s" fill="freeze"/></path><path d="M490.0,310.0 C505.5,310.0 505.5,297.5 520.9,297.5 C536.4,297.5 536.4,285.0 551.8,285.0 C567.3,285.0 567.3,265.0 582.7,265.0 C598.2,265.0 598.2,252.5 613.6,252.5 C629.1,252.5 629.1,225.0 644.5,225.0 C660.0,225.0 660.0,207.5 675.5,207.5 C690.9,207.5 690.9,175.0 706.4,175.0 C721.8,175.0 721.8,155.0 737.3,155.0 C752.7,155.0 752.7,122.5 768.2,122.5 C783.6,122.5 783.6,100.0 799.1,100.0 C814.5,100.0 814.5,70.0 830.0,70.0" pathLength="1" fill="none" stroke="url(#ln)" stroke-width="3" stroke-linecap="round" stroke-dasharray="1" stroke-dashoffset="1" filter="url(#g)"><animate attributeName="stroke-dashoffset" values="1;0" dur="2.2s" begin=".4s" calcMode="spline" keySplines=".5 0 .2 1" fill="freeze"/></path><circle r="6" fill="#fff" filter="url(#g)" opacity="0"><animateMotion path="M490.0,310.0 C505.5,310.0 505.5,297.5 520.9,297.5 C536.4,297.5 536.4,285.0 551.8,285.0 C567.3,285.0 567.3,265.0 582.7,265.0 C598.2,265.0 598.2,252.5 613.6,252.5 C629.1,252.5 629.1,225.0 644.5,225.0 C660.0,225.0 660.0,207.5 675.5,207.5 C690.9,207.5 690.9,175.0 706.4,175.0 C721.8,175.0 721.8,155.0 737.3,155.0 C752.7,155.0 752.7,122.5 768.2,122.5 C783.6,122.5 783.6,100.0 799.1,100.0 C814.5,100.0 814.5,70.0 830.0,70.0" dur="5s" begin="2.8s" repeatCount="indefinite"/><animate attributeName="opacity" values="0;1;1;0" keyTimes="0;.05;.9;1" dur="5s" begin="2.8s" repeatCount="indefinite"/></circle><circle cx="830.0" cy="70.0" r="5" fill="#ff4fd8"/><circle cx="830.0" cy="70.0" r="5" fill="none" stroke="#ff4fd8"><animate attributeName="r" values="5;18" dur="1.8s" repeatCount="indefinite"/><animate attributeName="opacity" values=".9;0" dur="1.8s" repeatCount="indefinite"/></circle><text x="490" y="348" font-size="12" fill="#7d8590">day 1</text><text x="830" y="348" text-anchor="end" font-size="12" fill="#7d8590">today</text></svg>